<?xml version="1.0" encoding="utf-8"?>
<!-- Generator: Adobe Illustrator 22.0.1, SVG Export Plug-In . SVG Version: 6.00 Build 0)  -->
<svg version="1.1" id="Layer_1" xmlns="http://www.w3.org/2000/svg" xmlns:xlink="http://www.w3.org/1999/xlink" x="0px" y="0px"
	 viewBox="0 0 300 37.2" style="enable-background:new 0 0 300 37.2;" xml:space="preserve">
<style type="text/css">
	.st0{fill:#884FFA;}
	.st1{fill:#5D5C5E;}
</style>
<path class="st0" d="M0,18.7v-0.1C0,8.4,7.7,0,18.8,0C25.6,0,29.6,2.3,33,5.6l-5,5.8c-2.8-2.5-5.6-4.1-9.2-4.1
	c-6.1,0-10.4,5-10.4,11.2v0.1c0,6.2,4.3,11.3,10.4,11.3c4.1,0,6.6-1.6,9.5-4.2l5,5.1c-3.7,4-7.8,6.4-14.8,6.4
	C7.9,37.2,0,29.1,0,18.7z"/>
<path class="st0" d="M32.9,18.7v-0.1C32.9,8.4,41,0,52.1,0s19.1,8.3,19.1,18.5v0.1c0,10.2-8.1,18.6-19.2,18.6S32.9,29,32.9,18.7z
	 M62.9,18.7v-0.1c0-6.2-4.5-11.3-10.9-11.3s-10.8,5-10.8,11.2v0.1c0,6.2,4.5,11.3,10.9,11.3S62.9,24.9,62.9,18.7z"/>
<path class="st0" d="M74.3,0.6h14c11.3,0,19.1,7.8,19.1,17.9v0.1c0,10.1-7.8,18-19.1,18h-14V0.6z M88.3,29.5
	c6.5,0,10.9-4.4,10.9-10.8v-0.1c0-6.4-4.4-10.9-10.9-10.9h-6.1v21.7L88.3,29.5L88.3,29.5z"/>
<path class="st0" d="M110.5,0.6h27.2v7h-19.3V15h19v7h-19v7.6h19.5v7h-27.4C110.5,36.6,110.5,0.6,110.5,0.6z"/>
<g>
	<path class="st1" d="M142.1,18.7v-0.1c0-10.2,8-18.6,18.9-18.6c6.5,0,10.4,1.7,14.1,4.9l-5,6c-2.8-2.3-5.2-3.7-9.4-3.7
		c-5.8,0-10.3,5.1-10.3,11.2v0.1c0,6.6,4.5,11.4,10.9,11.4c2.9,0,5.5-0.7,7.5-2.2v-12h7.7v15.6c-3.7,3.1-8.8,5.7-15.4,5.7
		C149.8,37.2,142.1,29.4,142.1,18.7z"/>
	<path class="st1" d="M180.7,0.6h7.9v36h-7.9V0.6z"/>
	<path class="st1" d="M234.1,0.6h7.3l16.9,22.2V0.6h7.8v36h-6.7L242,13.7v22.9h-7.8L234.1,0.6L234.1,0.6z"/>
	<path class="st1" d="M281.1,7.9h-11V0.6H300v7.3h-11v28.7h-7.9V7.9z"/>
	<path class="st1" d="M221.9,36.6h8.3L214.7,0.4h-7.3L192,36.6h8.1l1.7-4.2h18.4L221.9,36.6z M204.4,26.1L211,9.9l6.6,16.2H204.4z"
		/>
</g>
</svg>
